<svg viewBox="0 0 512 512" fill="currentColor">
  <path d="M256,48 C270,120 320,180 256,280 C192,180 242,120 256,48 Z" />
  <path d="M256,280 C220,240 150,200 80,220 C130,260 200,280 256,280 Z" />
  <path d="M256,280 C292,240 362,200 432,220 C382,260 312,280 256,280 Z" />
  <path d="M256,280 C210,210 120,140 60,120 C120,170 200,230 256,280 Z" />
  <path d="M256,280 C302,210 392,140 452,120 C392,170 312,230 256,280 Z" />
  <path d="M256,280 C230,320 180,350 120,360 C180,340 230,310 256,280 Z" />
  <path d="M256,280 C282,320 332,350 392,360 C332,340 282,310 256,280 Z" />
</svg>
